<svg width="20" height="16" viewBox="0 0 20 16" fill="none" xmlns="http://www.w3.org/2000/svg">
<path d="M9.68382 15.3379C9.67632 15.3478 9.66868 15.3577 9.6609 15.3675C9.63873 15.3952 9.61593 15.4222 9.59241 15.4483C9.59241 15.4483 9.59241 15.4483 9.59241 15.4483C9.47547 15.578 9.34074 15.6856 9.19435 15.7703C9.18133 15.7778 9.16825 15.7852 9.15508 15.7923C8.72217 16.0275 8.1947 16.067 7.72489 15.8899C7.55198 15.825 7.38809 15.7312 7.24123 15.6087C7.2039 15.5777 7.16832 15.5453 7.13451 15.5118L0.488153 9.13136C-0.162718 8.50653 -0.162718 7.49347 0.488153 6.86864C1.13902 6.24381 2.19429 6.24381 2.84516 6.86864L8.15297 11.9641L16.9999 0.640087C17.5522 -0.0668292 18.5969 -0.210097 19.3332 0.32009C20.0696 0.850277 20.2189 1.85315 19.6666 2.56006L9.68382 15.3379Z" fill="#448F8F"/>
</svg>
