<svg width="137" height="47" viewBox="0 0 137 47" fill="none" xmlns="http://www.w3.org/2000/svg">
<path fill-rule="evenodd" clip-rule="evenodd" d="M14.6802 0.448242C14.2261 0.451639 13.6565 0.457551 12.8823 0.466995C11.6468 0.499676 10.7094 0.574548 9.79076 0.738018C8.67144 0.936886 7.65805 1.26423 6.68915 1.75315C5.70451 2.24886 4.80283 2.89751 4.0205 3.67308C3.23906 4.44613 2.5833 5.33998 2.08033 6.31808C1.58598 7.27981 1.25494 8.28584 1.05229 9.39976C0.886809 10.3116 0.81173 11.2382 0.778904 12.4496L0.767646 12.9543C0.764662 13.1276 0.762356 13.3069 0.760728 13.4956L0.755371 14.5919L0.755438 32.5214L0.758762 33.3032C0.761339 33.8011 0.76751 34.2295 0.778904 34.6411C0.811798 35.8515 0.886876 36.7785 1.05223 37.6888C1.25501 38.8036 1.58612 39.8103 2.08026 40.7715C2.58343 41.7491 3.23893 42.6427 4.02105 43.4172C4.80412 44.1927 5.70587 44.8416 6.6903 45.3372C7.65805 45.8256 8.67144 46.1529 9.79117 46.3518C10.6259 46.5004 11.4765 46.5757 12.5379 46.6126L13.3334 46.632C13.7471 46.6378 14.3584 46.641 15.5789 46.6448L32.8868 46.6421C33.3456 46.6389 33.9001 46.6332 34.7469 46.6228C35.9826 46.5901 36.9199 46.5153 37.8386 46.3517C38.9579 46.1529 39.9713 45.8256 40.9402 45.3367C41.9238 44.841 42.826 44.192 43.6082 43.4172C44.3909 42.6422 45.0465 41.7482 45.5484 40.7713C46.0432 39.8104 46.3745 38.8031 46.5764 37.6882C46.7269 36.8601 46.8032 36.0157 46.8404 34.9626L46.8504 34.6402C46.8573 34.3938 46.8622 34.1409 46.8656 33.8709L46.8736 31.7458L46.8723 14.17L46.8656 13.2189C46.8622 12.9488 46.8573 12.6957 46.8504 12.4488C46.8177 11.2432 46.7419 10.3128 46.5764 9.40037C46.3746 8.28631 46.0433 7.27961 45.5479 6.3174C45.0466 5.34086 44.3908 4.4466 43.6077 3.67199C42.8273 2.89826 41.9252 2.24947 40.9394 1.75281C39.9713 1.26423 38.9579 0.936887 37.8382 0.737951C37.0034 0.589428 36.1529 0.514012 35.0914 0.477255L34.1778 0.456327C34.1051 0.455444 34.0264 0.454629 33.9399 0.453882L14.6802 0.448242Z" fill="#1A1A1A" fill-opacity="0.01"/>
<path fill-rule="evenodd" clip-rule="evenodd" d="M12.8988 1.82579L14.7554 1.8067L34.0732 1.81417C34.3661 1.81716 34.5482 1.82083 34.7304 1.82579C35.6881 1.85127 36.6541 1.90746 37.6013 2.07603C38.5628 2.24683 39.4569 2.52628 40.3299 2.96682C41.1877 3.39907 41.9737 3.96395 42.6546 4.63903C43.3354 5.31247 43.9058 6.09015 44.3423 6.94045C44.7878 7.80577 45.0693 8.69133 45.2418 9.64355C45.412 10.5815 45.4687 11.5382 45.4944 12.4867C45.5066 12.9219 45.5118 13.3572 45.5141 13.7932L45.5167 14.5684L45.5171 31.7459C45.5171 32.2629 45.5171 32.7798 45.5141 33.2975C45.5118 33.7328 45.5066 34.1681 45.4944 34.6033C45.4687 35.551 45.412 36.5085 45.2418 37.4457C45.0693 38.3979 44.7878 39.2842 44.3423 40.1495C43.9058 40.9991 43.3354 41.7768 42.6546 42.451C41.9737 43.1253 41.1877 43.6909 40.3299 44.1232C39.4569 44.5637 38.5628 44.8432 37.6013 45.014C36.6541 45.1825 35.6881 45.2387 34.7304 45.2642L31.8451 45.2867L13.5555 45.2758C13.2626 45.2728 13.0807 45.2692 12.8988 45.2642C11.9411 45.2387 10.9751 45.1825 10.0279 45.014C9.0665 44.8432 8.17234 44.5637 7.29934 44.1232C6.44072 43.6909 5.65548 43.1253 4.97462 42.451C4.29383 41.7768 3.72338 40.9991 3.28613 40.1495C2.84136 39.2842 2.5599 38.3979 2.38668 37.4457C2.21645 36.5085 2.1605 35.551 2.13479 34.6033C2.12265 34.1681 2.11736 33.7328 2.11513 33.2975L2.1118 32.5214L2.11133 15.3441C2.11133 14.8271 2.11133 14.3094 2.11513 13.7932C2.11736 13.3572 2.12265 12.9219 2.13479 12.4867C2.1605 11.5382 2.21645 10.5815 2.38668 9.64355C2.5599 8.69133 2.84136 7.80577 3.28613 6.94045C3.72338 6.09015 4.29383 5.31247 4.97462 4.63903C5.65548 3.96395 6.44072 3.39907 7.29934 2.96682C8.17234 2.52628 9.0665 2.24683 10.0279 2.07603C10.9751 1.90746 11.9411 1.85127 12.8988 1.82579Z" fill="#1A1A1A" fill-opacity="0.01"/>
<mask id="mask0_43_41" style="mask-type:alpha" maskUnits="userSpaceOnUse" x="2" y="1" width="44" height="45">
<path fill-rule="evenodd" clip-rule="evenodd" d="M12.8988 1.82579L14.7554 1.8067L34.0732 1.81417C34.3661 1.81716 34.5482 1.82083 34.7304 1.82579C35.6881 1.85127 36.6541 1.90746 37.6013 2.07603C38.5628 2.24683 39.4569 2.52628 40.3299 2.96682C41.1877 3.39907 41.9737 3.96395 42.6546 4.63903C43.3354 5.31247 43.9058 6.09015 44.3423 6.94045C44.7878 7.80577 45.0693 8.69133 45.2418 9.64355C45.412 10.5815 45.4687 11.5382 45.4944 12.4867C45.5066 12.9219 45.5118 13.3572 45.5141 13.7932L45.5167 14.5684L45.5171 31.7459C45.5171 32.2629 45.5171 32.7798 45.5141 33.2975C45.5118 33.7328 45.5066 34.1681 45.4944 34.6033C45.4687 35.551 45.412 36.5085 45.2418 37.4457C45.0693 38.3979 44.7878 39.2842 44.3423 40.1495C43.9058 40.9991 43.3354 41.7768 42.6546 42.451C41.9737 43.1253 41.1877 43.6909 40.3299 44.1232C39.4569 44.5637 38.5628 44.8432 37.6013 45.014C36.6541 45.1825 35.6881 45.2387 34.7304 45.2642L31.8451 45.2867L13.5555 45.2758C13.2626 45.2728 13.0807 45.2692 12.8988 45.2642C11.9411 45.2387 10.9751 45.1825 10.0279 45.014C9.0665 44.8432 8.17234 44.5637 7.29934 44.1232C6.44072 43.6909 5.65548 43.1253 4.97462 42.451C4.29383 41.7768 3.72338 40.9991 3.28613 40.1495C2.84136 39.2842 2.5599 38.3979 2.38668 37.4457C2.21645 36.5085 2.1605 35.551 2.13479 34.6033C2.12265 34.1681 2.11736 33.7328 2.11513 33.2975L2.1118 32.5214L2.11133 15.3441C2.11133 14.8271 2.11133 14.3094 2.11513 13.7932C2.11736 13.3572 2.12265 12.9219 2.13479 12.4867C2.1605 11.5382 2.21645 10.5815 2.38668 9.64355C2.5599 8.69133 2.84136 7.80577 3.28613 6.94045C3.72338 6.09015 4.29383 5.31247 4.97462 4.63903C5.65548 3.96395 6.44072 3.39907 7.29934 2.96682C8.17234 2.52628 9.0665 2.24683 10.0279 2.07603C10.9751 1.90746 11.9411 1.85127 12.8988 1.82579Z" fill="white"/>
</mask>
<g mask="url(#mask0_43_41)">
<path d="M45.5171 1.80316H2.11133V45.2865H45.5171V1.80316Z" fill="#19AA1E"/>
<path fill-rule="evenodd" clip-rule="evenodd" d="M2.11133 1.80316H45.5171V16.0711L2.11133 9.27686V1.80316Z" fill="#FFB919"/>
<path fill-rule="evenodd" clip-rule="evenodd" d="M2.11133 40.5307L45.5171 33.7365V45.2867H2.11133V40.5307Z" fill="#82D714"/>
<path fill-rule="evenodd" clip-rule="evenodd" d="M2.11133 8.41748L17.2625 10.789C19.1485 9.59302 21.3923 8.93731 23.8142 8.93731C27.1687 8.93731 30.1815 10.1953 32.3753 12.4042C32.6521 12.683 32.9132 12.9745 33.1581 13.2771L45.5171 15.2117V16.9308L34.4131 15.1928C35.238 16.7787 35.683 18.5457 35.683 20.349C35.683 22.6786 35.1628 25.0014 34.0876 27.3334L34.0549 27.4041L33.5982 28.3843H32.5184C30.2886 28.3843 28.8095 29.0526 27.8425 30.2367C27.0832 31.1665 26.6441 32.4199 26.4964 33.7875L26.4919 33.8303L26.4703 34.0488L26.4611 34.1438L26.4435 34.3298C26.387 34.9404 26.3492 35.4582 26.33 35.8802L45.5171 32.8768V34.5959L2.11133 41.3902V39.671L21.3201 36.6643L21.3116 36.2783L21.3091 36.1695L21.3075 36.1137L21.3046 36.0275C21.2872 35.5596 21.2444 34.9596 21.1758 34.2326L21.1627 34.0947L21.1392 33.856C21.0013 32.4811 20.5688 31.2118 19.8115 30.2683C18.8546 29.076 17.3892 28.398 15.1773 28.3845L15.1101 28.3843H14.0302L13.5736 27.4041C12.4762 25.0483 11.9455 22.7022 11.9455 20.349C11.9455 17.3897 13.1439 14.5282 15.2532 12.4042C15.3141 12.3429 15.3756 12.2823 15.4377 12.2225L2.11133 10.1366V8.41748Z" fill="white"/>
<path fill-rule="evenodd" clip-rule="evenodd" d="M23.8143 10.636C29.8742 10.636 33.9876 15.3086 33.9876 20.3491C33.9876 22.3727 33.5469 24.4784 32.5185 26.6859C26.5556 26.6859 25.0838 30.9638 24.8055 33.6554L24.7877 33.8348C24.6934 34.7955 24.6388 35.5663 24.6239 36.1474L23.0088 36.4001L23.0084 36.3478C23.0023 35.7387 22.9449 34.8843 22.8361 33.7845L22.8313 33.7365C22.5742 31.0507 21.1333 26.6859 15.1102 26.6859C14.0818 24.4784 13.6411 22.3727 13.6411 20.3491C13.6411 15.3086 17.7545 10.636 23.8143 10.636Z" fill="#0073FA"/>
</g>
<path fill-rule="evenodd" clip-rule="evenodd" d="M65.5926 12.3344C60.3025 12.3344 56.335 15.5616 56.3689 21.1669H61.2859C61.2181 18.9248 62.6424 16.7506 65.5926 16.7506C67.8307 16.7506 69.255 18.2454 69.255 20.1478C69.255 22.1181 67.6951 23.2052 65.1857 24.4282C61.8963 26.0248 59.9295 26.7722 56.3689 27.9612V34.4157H74.6807V29.9994H63.0154C64.715 29.2897 66.3698 28.5102 67.8646 27.7913C71.8322 25.8889 74.172 23.7487 74.172 19.91C74.172 15.2899 70.7131 12.3344 65.5926 12.3344ZM82.1411 17.0903H91.6361V12.6741H77.3936V34.4157H82.1411V17.0903ZM99.0965 12.6741H94.349V34.4157H99.0625L107.913 20.5214V34.4157H112.661V12.6741H107.913L99.0965 26.5683V12.6741ZM136.5 26.2626H131.583C130.837 28.6746 128.565 30.3392 125.886 30.3392C121.986 30.3392 119.443 26.976 119.443 23.5449C119.443 20.1138 121.918 16.7506 126.022 16.7506C128.734 16.7506 130.837 18.4152 131.583 20.8272H136.5C135.788 15.9693 131.956 12.3344 125.886 12.3344C119.172 12.3344 114.695 17.0564 114.695 23.5449C114.695 30.0334 119.172 34.7554 125.886 34.7554C131.956 34.7554 135.788 31.1884 136.5 26.2626Z" fill="#1A1A1A"/>
</svg>
