<svg width="135" height="45" viewBox="0 0 135 45" fill="none" xmlns="http://www.w3.org/2000/svg">
<path d="M57.8442 23.9645C57.8442 30.3107 52.8795 34.9871 46.7868 34.9871C40.6941 34.9871 35.7295 30.3107 35.7295 23.9645C35.7295 17.5736 40.6941 12.942 46.7868 12.942C52.8795 12.942 57.8442 17.5736 57.8442 23.9645ZM53.0038 23.9645C53.0038 19.9988 50.1264 17.2854 46.7868 17.2854C43.4473 17.2854 40.5699 19.9988 40.5699 23.9645C40.5699 27.8905 43.4473 30.6436 46.7868 30.6436C50.1264 30.6436 53.0038 27.8855 53.0038 23.9645Z" fill="#EA4335"/>
<path d="M81.6982 23.9645C81.6982 30.3107 76.7335 34.9871 70.6408 34.9871C64.5481 34.9871 59.5835 30.3107 59.5835 23.9645C59.5835 17.5786 64.5481 12.942 70.6408 12.942C76.7335 12.942 81.6982 17.5736 81.6982 23.9645ZM76.8578 23.9645C76.8578 19.9988 73.9804 17.2854 70.6408 17.2854C67.3013 17.2854 64.4239 19.9988 64.4239 23.9645C64.4239 27.8905 67.3013 30.6436 70.6408 30.6436C73.9804 30.6436 76.8578 27.8855 76.8578 23.9645Z" fill="#FBBC05"/>
<path d="M104.558 13.6079V33.3968C104.558 41.537 99.7578 44.8616 94.0825 44.8616C88.7402 44.8616 85.5249 41.2885 84.3123 38.3664L88.5265 36.6121C89.2769 38.4061 91.1157 40.5232 94.0776 40.5232C97.7103 40.5232 99.9616 38.2819 99.9616 34.0627V32.4774H99.7926C98.7092 33.8142 96.622 34.9821 93.9881 34.9821C88.4768 34.9821 83.4277 30.1815 83.4277 24.0043C83.4277 17.7823 88.4768 12.942 93.9881 12.942C96.617 12.942 98.7043 14.1098 99.7926 15.4069H99.9616V13.6128H104.558V13.6079ZM100.304 24.0043C100.304 20.123 97.7153 17.2854 94.4205 17.2854C91.0809 17.2854 88.283 20.123 88.283 24.0043C88.283 27.8458 91.0809 30.6436 94.4205 30.6436C97.7153 30.6436 100.304 27.8458 100.304 24.0043Z" fill="#4285F4"/>
<path d="M112.137 2.00873V34.3111H107.416V2.00873H112.137Z" fill="#34A853"/>
<path d="M130.534 27.5923L134.291 30.0969C133.079 31.891 130.157 34.982 125.108 34.982C118.846 34.982 114.169 30.1417 114.169 23.9595C114.169 17.4046 118.886 12.937 124.566 12.937C130.286 12.937 133.084 17.4891 133.998 19.949L134.5 21.2014L119.765 27.304C120.893 29.5155 122.648 30.6436 125.108 30.6436C127.572 30.6436 129.282 29.431 130.534 27.5923ZM118.97 23.6265L128.82 19.5366C128.278 18.16 126.648 17.2009 124.73 17.2009C122.27 17.2009 118.846 19.3726 118.97 23.6265Z" fill="#EA4335"/>
<path d="M17.8588 21.097V16.4206H33.6173C33.7714 17.2356 33.8509 18.1997 33.8509 19.2433C33.8509 22.7518 32.8918 27.0903 29.8007 30.1814C26.7941 33.3122 22.9526 34.982 17.8637 34.982C8.43146 34.982 0.5 27.299 0.5 17.8667C0.5 8.43445 8.43146 0.751465 17.8637 0.751465C23.0818 0.751465 26.7991 2.79894 29.592 5.46761L26.2922 8.76741C24.2894 6.88891 21.576 5.42785 17.8588 5.42785C10.9709 5.42785 5.58389 10.9789 5.58389 17.8667C5.58389 24.7546 10.9709 30.3056 17.8588 30.3056C22.3264 30.3056 24.8709 28.5116 26.5009 26.8816C27.8228 25.5597 28.6925 23.6712 29.0354 21.092L17.8588 21.097Z" fill="#4285F4"/>
</svg>
