<svg width="100" height="100" viewBox="0 0 100 100" fill="none" xmlns="http://www.w3.org/2000/svg">
<rect width="100" height="100" rx="4" fill="url(#paint0_linear_43_70)"/>
<path d="M46.0128 25.041C46.8741 24.9898 47.746 24.9979 48.6141 25.006H48.6171C48.9433 25.009 49.269 25.012 49.5934 25.0118C51.3864 25.0034 53.1793 25.0084 54.9721 25.0269C54.9323 27.4883 54.9431 29.9543 54.9539 32.4185V32.4216C54.9581 33.383 54.9624 34.3442 54.9636 35.3048L64.9062 35.3014C64.9326 35.3576 64.9589 35.4149 64.9714 35.4766C65.042 35.825 65.0138 36.6477 64.9911 37.3132V37.3135L64.991 37.3139C64.9815 37.593 64.9729 37.8443 64.9729 38.0215L64.9736 42.0245C64.9735 42.2325 64.9765 42.4423 64.9794 42.6527V42.6541C64.9862 43.141 64.9931 43.6316 64.9631 44.111C64.9551 44.2386 64.9252 44.3346 64.857 44.4429C62.9381 44.3892 61.0168 44.3992 59.0955 44.4093C57.7269 44.4164 56.3583 44.4236 54.9907 44.4077C54.9183 45.7614 54.9331 47.1346 54.9477 48.501C54.9536 49.0441 54.9594 49.5862 54.9597 50.1255L54.9584 50.473L54.9624 51.141L54.9587 51.5258L54.9561 54.6789C54.5275 54.7388 54.0783 54.732 53.6372 54.7253H53.6348C53.544 54.7239 53.4534 54.7225 53.3634 54.7218C53.3105 54.7213 53.2578 54.721 53.2054 54.7211C52.1784 54.716 51.1515 54.7197 50.1246 54.7323C49.8402 54.7005 49.5389 54.7055 49.2436 54.7104C49.1275 54.7124 49.0123 54.7143 48.8994 54.7139L48.4684 54.719C48.2813 54.7225 48.0839 54.7316 47.8816 54.741H47.8814C47.2493 54.7702 46.5696 54.8016 46.0062 54.67C45.9968 53.5306 46.0077 52.3913 46.0388 51.2523C45.9943 50.7133 46.0046 50.1584 46.0148 49.6082C46.0191 49.3754 46.0234 49.1435 46.0235 48.9139C46.0286 47.4172 46.0248 45.9205 46.0122 44.4237H36.0562C35.9784 43.5768 35.9886 42.708 35.9986 41.8483V41.848C36.0019 41.5692 36.0052 41.2914 36.0054 41.0156L36.0127 35.2993L46.0165 35.3032C46.0979 31.8966 46.0966 28.4476 46.0128 25.041Z" fill="#2FA5D5"/>
<path d="M13.5494 40.1162C13.3764 40.0869 13.1945 40.1019 13.0206 40.1175C12.6947 40.2812 12.445 40.4715 12.3266 40.8399C12.2499 41.0786 12.2386 41.3532 12.2809 41.5997C12.5105 42.9412 14.0557 46.4781 14.7331 47.8045C15.3639 49.0397 16.2667 49.9519 17.2123 50.9074L17.3145 51.0106C17.3806 51.0775 17.4469 51.1447 17.5133 51.2123L17.9584 51.6247C17.3654 50.7731 16.7471 49.8848 16.3037 48.94C15.6012 47.4433 15.2793 45.6423 14.9795 43.9652C14.933 43.705 14.887 43.4477 14.8402 43.1951C14.7913 42.9309 14.7613 42.647 14.731 42.3598C14.6768 41.8459 14.6215 41.3214 14.4541 40.8792C14.3011 40.4751 13.9702 40.1874 13.5494 40.1162Z" fill="#2FA5D5"/>
<path d="M87.2412 40.1405C87.4444 40.1067 87.6525 40.0796 87.8566 40.1221C88.145 40.182 88.4024 40.3331 88.56 40.5961C88.7777 40.9591 88.7648 41.4237 88.6658 41.8226C88.5264 42.3853 88.3092 42.9517 88.0976 43.5033C88.0676 43.5815 88.0377 43.6595 88.0081 43.7371C87.9959 43.7692 87.9837 43.8012 87.9717 43.8331L87.9529 43.8828L87.9331 43.9358C87.1112 46.134 86.2685 48.3277 84.645 50.0386C84.5971 50.0891 84.5489 50.1413 84.5002 50.1941L84.5001 50.1943C84.2871 50.4252 84.0637 50.6674 83.8045 50.8269L83.8038 50.831L83.803 50.8369C83.8025 50.8409 83.802 50.8448 83.8013 50.8487C83.8008 50.8515 83.8002 50.8542 83.7993 50.8568C83.7025 51.1741 83.1373 51.4686 82.8628 51.6117L82.8467 51.6201L82.8596 51.6116C82.8849 51.5949 82.9103 51.5781 82.9351 51.5607C83.3458 51.2729 83.6614 50.7512 83.9287 50.3095C83.9467 50.2797 83.9644 50.2504 83.982 50.2215C84.2899 49.7147 84.5928 49.2052 84.824 48.6559C85.575 46.8711 85.9469 44.582 86.2631 42.6358L86.2819 42.5201C86.3127 42.3307 86.3318 42.1381 86.3509 41.9457C86.3747 41.7054 86.3985 41.4652 86.4451 41.2314C86.553 40.6905 86.8046 40.4378 87.2412 40.1405Z" fill="#2FA5D5"/>
<path d="M17.0326 44.3839C16.9283 44.3581 16.8394 44.3535 16.7332 44.3609L16.7184 44.3702L16.6982 44.3826L16.6608 44.4055L16.6583 44.4071L16.6563 44.4083C16.4484 44.5352 16.2248 44.6717 16.1586 44.9245C15.9086 45.8814 17.5353 50.025 18.1196 50.9578C18.4843 51.5402 18.998 52.1389 19.4785 52.6242L19.6908 52.8214C19.7198 52.7091 19.5837 52.4818 19.4965 52.3363C19.4797 52.3083 19.4648 52.2834 19.4532 52.2628C19.3944 52.1588 19.3327 52.0542 19.2705 51.9489L19.2703 51.9485C19.098 51.6565 18.9224 51.3587 18.7961 51.0522C18.2702 49.7759 18.0989 48.1181 17.957 46.7449L17.9559 46.7342C17.9409 46.5887 17.9305 46.4341 17.9199 46.2756C17.8891 45.8146 17.8561 45.3218 17.6991 44.9292C17.579 44.6293 17.33 44.4577 17.0326 44.3839Z" fill="#2FA5D5"/>
<path d="M83.8083 44.4025C83.9173 44.3851 84.0244 44.3765 84.1347 44.3867C84.3555 44.4071 84.614 44.5089 84.7472 44.699C84.9182 44.9428 84.8862 45.3042 84.8428 45.5853C84.7632 46.0995 84.5928 46.6106 84.4266 47.1093C84.3922 47.2124 84.3581 47.3149 84.3249 47.4168L84.2965 47.5043C83.7786 49.0972 83.0422 51.3619 81.6824 52.3774L81.6804 52.3858L81.6786 52.3939L81.6785 52.3941C81.6758 52.4059 81.6731 52.4177 81.6695 52.4292C81.6029 52.6409 81.2845 52.7928 81.0714 52.8944C81.0561 52.9017 81.0414 52.9087 81.0273 52.9155C81.0136 52.9221 81.0005 52.9285 80.9882 52.9346C82.4356 51.9002 82.8708 48.3825 83.0584 46.6988C83.0792 46.5113 83.0913 46.3208 83.1035 46.1299C83.1242 45.8037 83.145 45.4763 83.2098 45.1606C83.2935 44.7529 83.48 44.6193 83.8083 44.4025Z" fill="#2FA5D5"/>
<path d="M19.6752 47.3879C19.4563 47.2434 19.1767 47.2669 18.93 47.2973C18.7207 47.5023 18.6033 47.6546 18.5999 47.9691C18.5887 49.0231 19.5963 51.8218 20.1423 52.7321C20.4034 53.1676 20.7309 53.5551 21.0574 53.9416C21.1823 54.0895 21.3071 54.2372 21.428 54.3874L21.5351 54.4594C21.4702 54.1654 21.3066 53.8899 21.1435 53.6153C21.0192 53.4058 20.8951 53.1968 20.8152 52.9804C20.3172 51.6309 20.1551 50.003 20.0568 48.5734C20.0549 48.5462 20.0531 48.5179 20.0512 48.4887C20.0276 48.1166 19.9948 47.5991 19.6752 47.3879Z" fill="#2FA5D5"/>
<path d="M81.3953 47.3251C81.5475 47.2836 81.7165 47.2626 81.8732 47.2875C82.0296 47.3124 82.1812 47.4073 82.264 47.547C82.4945 47.9357 82.3708 48.471 82.266 48.8786C81.9366 50.1606 80.9432 53.3477 79.8096 54.0246L79.8092 54.0264L79.8086 54.0297L79.8078 54.0343C79.8073 54.0365 79.8068 54.0387 79.8061 54.0408C79.7191 54.3121 79.4761 54.4779 79.2478 54.6157C80.3492 53.5331 80.6812 51.0842 80.8245 49.6042C80.8289 49.5592 80.8329 49.5134 80.8367 49.467C80.84 49.4264 80.8431 49.3853 80.8461 49.3439C80.8502 49.2866 80.8542 49.2285 80.8582 49.1699C80.8911 48.6916 80.9262 48.1789 81.0835 47.7637C81.144 47.6042 81.2623 47.4728 81.3746 47.3481L81.3953 47.3251Z" fill="#2FA5D5"/>
<path d="M26.116 48.7301L26.6992 48.7022C26.7549 48.709 26.8155 48.714 26.8777 48.7191C27.0181 48.7306 27.1668 48.7429 27.2867 48.7787C27.7612 48.863 28.2328 48.9623 28.7015 49.0765C29.1701 49.1907 29.6349 49.3197 30.0958 49.4635C30.5567 49.6071 31.0129 49.7652 31.4643 49.9378C31.9156 50.1104 32.3615 50.2971 32.8017 50.498L33.1693 50.715L33.9559 51.1479L34.387 51.3861L34.763 51.5903C34.9881 51.7218 35.2116 51.8562 35.4334 51.9933C35.6553 52.1304 35.8755 52.2704 36.094 52.4131C36.3126 52.5557 36.5294 52.7011 36.7445 52.8493C36.9595 52.9975 37.1728 53.1483 37.3842 53.3018C37.5957 53.4553 37.8054 53.6115 38.0131 53.7703C38.2209 53.9292 38.4267 54.0906 38.6306 54.2547C38.8345 54.4187 39.0364 54.5852 39.2363 54.7544C39.4362 54.9234 39.6341 55.095 39.83 55.2691C40.0258 55.4432 40.2196 55.6197 40.4111 55.7987C40.6028 55.9777 40.7923 56.159 40.9795 56.3428C41.1668 56.5266 41.3519 56.7127 41.5347 56.9011C41.7176 57.0895 41.8982 57.2803 42.0765 57.4732C42.2549 57.6661 42.4309 57.8613 42.6045 58.0588C42.7782 58.2562 42.9494 58.4558 43.1183 58.6575C43.2872 58.8593 43.4537 59.0631 43.6177 59.269C43.7818 59.475 43.9433 59.6829 44.1024 59.8929C44.2614 60.1029 44.418 60.3149 44.572 60.5288C44.726 60.7428 44.8774 60.9587 45.0263 61.1765C45.1752 61.3942 45.3215 61.6138 45.4651 61.8352C45.6087 62.0567 45.7497 62.2799 45.8879 62.505C46.0263 62.73 46.1619 62.9567 46.2948 63.1851C46.4277 63.4136 46.5579 63.6437 46.6853 63.8754C46.8127 64.1071 46.9373 64.3403 47.0591 64.5752C47.181 64.8101 47.3 65.0465 47.4162 65.2843C47.5325 65.5222 47.6458 65.7614 47.7564 66.0021C47.8668 66.2429 47.9744 66.485 48.0792 66.7284C48.1839 66.9718 48.2858 67.2165 48.3846 67.4626C48.4835 67.7085 48.5795 67.9557 48.6724 68.2042C48.7654 68.4526 48.8555 68.7021 48.9425 68.9529C49.0295 69.2035 49.1136 69.4553 49.1947 69.7081C49.2757 69.9609 49.3537 70.2147 49.4287 70.4695C49.5037 70.7242 49.5756 70.9799 49.6445 71.2365C49.9792 72.459 50.2494 73.6963 50.4553 74.9484C50.3701 74.8456 50.2852 74.7425 50.2004 74.6395L50.19 74.6268L50.1899 74.6267C49.6224 73.9373 49.0587 73.2525 48.4007 72.6462C45.4898 69.9638 41.3963 68.4176 37.5867 67.71C37.0028 67.6016 36.4112 67.5126 35.8186 67.4235L35.8165 67.4231L35.8162 67.4231L35.8159 67.423C34.6524 67.248 33.4847 67.0725 32.3622 66.7478C30.2206 66.1285 28.2921 65.1996 26.314 64.1757C23.4118 62.6736 20.6754 61.0215 18.0868 58.9959C17.9795 58.9119 17.8713 58.8282 17.7628 58.7441L17.7622 58.7437L17.7619 58.7434C17.1704 58.2855 16.5699 57.8204 16.0536 57.2802C14.2113 55.3523 12.8445 53.0343 11.6911 50.6184C10.2938 47.6916 8.90778 44.2818 9.00482 40.9707C9.33501 40.6115 9.64342 40.3847 10.1401 40.3765C10.3075 40.3736 10.4788 40.3995 10.6455 40.4246L10.646 40.4247C10.6685 40.4281 10.6909 40.4315 10.7132 40.4347L10.7331 40.4493C10.8772 40.5545 11.0248 40.6622 11.1248 40.8145C11.4289 41.2772 11.8113 42.4201 12.1297 43.3716L12.1298 43.372C12.2665 43.7805 12.3914 44.1537 12.4932 44.4225C13.0388 45.8631 13.6327 47.4197 14.4581 48.7155C15.1428 49.7904 16.1049 50.7392 17.0068 51.6287L17.0074 51.6292L17.0076 51.6294L17.0428 51.6641C19.7633 54.3471 21.7215 55.472 25.227 56.751C25.2833 56.7716 25.3398 56.7923 25.3964 56.8132C25.472 56.8411 25.5479 56.8692 25.6241 56.8973L25.6431 56.9044L25.6434 56.9045C26.4014 57.1853 27.1866 57.476 27.9629 57.6426C29.1418 57.8959 30.4094 58.0273 31.6267 58.1534C31.8135 58.1728 31.9991 58.192 32.1831 58.2116C31.4377 56.911 30.4982 55.9455 29.4167 54.9468L29.2302 54.7843C29.0444 54.6584 28.8665 54.5122 28.69 54.3671L28.6897 54.3669C28.6159 54.3062 28.5424 54.2458 28.4687 54.1872L28.22 53.9945C27.9241 53.7635 27.6173 53.548 27.3106 53.3325L27.3093 53.3316L27.1947 53.2511L27.1372 53.2106C26.9343 53.0707 26.7459 52.9221 26.5578 52.7618L26.0526 52.3999L25.8404 52.2367C25.6574 52.0894 25.488 51.9206 25.32 51.7531C25.2688 51.7021 25.2177 51.6512 25.1664 51.6011C24.728 51.1275 24.4718 50.6913 24.3002 50.0597C24.3092 49.915 24.3244 49.7853 24.3935 49.656C24.6804 49.1191 25.2352 48.9207 25.7777 48.7752L26.116 48.7301Z" fill="#2FA5D5"/>
<path d="M50.4664 74.9618L50.4604 74.9796L50.4553 74.9484L50.4664 74.9618Z" fill="#2FA5D5"/>
<path d="M50.4664 74.9618C50.6314 74.4716 50.7336 73.9581 50.8354 73.4473C50.8562 73.3427 50.877 73.2382 50.8984 73.134C50.9139 73.058 50.9298 72.9823 50.9461 72.9067C51.1209 72.1302 51.3198 71.3603 51.5426 70.5969C51.6329 70.2895 51.7274 69.9835 51.8263 69.6788C51.9251 69.3742 52.0282 69.0712 52.1356 68.7696C52.243 68.4681 52.3547 68.1682 52.4705 67.87C52.5864 67.5717 52.7064 67.2753 52.8307 66.9807C52.955 66.686 53.0833 66.3933 53.2158 66.1026C53.3483 65.8117 53.4849 65.523 53.6256 65.2362C53.7662 64.9495 53.9109 64.6649 54.0596 64.3825C54.2082 64.1001 54.3608 63.82 54.5174 63.5422C54.6741 63.2643 54.8346 62.9889 54.9989 62.7158C55.1633 62.4428 55.3315 62.1722 55.5034 61.9042C55.6754 61.6361 55.8512 61.3707 56.0307 61.1079C56.2102 60.8451 56.3933 60.585 56.5801 60.3277C56.767 60.0704 56.9575 59.8159 57.1515 59.5642C57.3455 59.3125 57.543 59.0638 57.744 58.8181C57.945 58.5723 58.1495 58.3296 58.3574 58.09C58.5653 57.8504 58.7765 57.6138 58.9911 57.3805C59.8684 56.4335 60.8017 55.5489 61.7909 54.7268C61.9397 54.6043 62.1714 54.4332 62.4246 54.246L62.4249 54.2458L62.4254 54.2454C62.9266 53.875 63.5122 53.4422 63.7094 53.1997C63.8909 53.1129 64.0135 53.0284 64.16 52.888C64.319 52.8048 64.4671 52.7006 64.6146 52.5967C64.6485 52.5728 64.6825 52.5489 64.7165 52.5253C64.875 52.4416 64.993 52.3647 65.1231 52.2382C65.4346 52.0672 65.7403 51.8847 66.0458 51.7023L66.0469 51.7017C66.1324 51.6506 66.218 51.5995 66.3036 51.5487C66.9868 51.1434 67.6919 50.7948 68.3994 50.4452C68.6325 50.3299 68.8659 50.2145 69.0989 50.097C69.1916 50.063 69.2893 50.0269 69.3915 49.9891C71.1565 49.3371 74.2574 48.1916 75.8683 48.987C76.2027 49.1521 76.4865 49.4259 76.6025 49.7961C76.6991 50.1044 76.6699 50.4113 76.5201 50.6959C76.4328 50.8619 76.3138 51.0487 76.1476 51.1357C76.1026 51.3079 76.063 51.4114 75.8987 51.5037C75.8617 51.5246 75.8219 51.5412 75.783 51.5574C75.7274 51.8244 75.3411 52.1126 75.125 52.2609C75.0683 52.2999 75.0149 52.3229 74.9508 52.3457C74.8588 52.564 74.3134 52.9221 74.0939 53.0041C74.0646 53.015 74.0465 53.018 74.0149 53.0257C73.9152 53.2229 73.7153 53.3069 73.5161 53.3759C73.4474 53.4683 73.4123 53.4851 73.3094 53.5199C73.2191 53.6857 73.123 53.7279 72.9557 53.8016L72.9397 53.8087C72.8469 54.0026 72.6609 54.1016 72.4704 54.1767C72.4061 54.324 72.2991 54.4016 72.1481 54.457C72.1377 54.4608 72.1272 54.4643 72.1166 54.4678L72.1021 54.4728C72.0951 54.4899 72.0886 54.5074 72.081 54.5242C72.076 54.5355 71.8351 54.7597 71.5151 55.0575L71.5149 55.0578C70.9413 55.5916 70.1139 56.3617 69.9354 56.5654C69.7589 56.7668 69.6058 57.0156 69.452 57.2657C69.2387 57.6123 69.0239 57.9613 68.7433 58.1901L68.7133 58.2149C69.6138 58.1446 70.5073 58.0138 71.4008 57.8829L71.4019 57.8828C71.512 57.8667 71.6222 57.8505 71.7324 57.8345C71.8747 57.8138 72.0177 57.7966 72.1609 57.7795L72.1629 57.7792C72.4824 57.7409 72.8024 57.7025 73.1147 57.6252C74.0105 57.4035 74.8969 57.0745 75.7683 56.7511L75.8857 56.7075C75.9675 56.6772 76.0492 56.6469 76.1307 56.6169C77.0627 56.2731 77.9892 55.9305 78.8773 55.4762C81.5692 54.0992 83.979 51.8915 85.9349 49.5599C87.2494 47.9927 88.3016 45.0698 89.0449 43.0049L89.1416 42.7364C89.2106 42.5451 89.2702 42.3351 89.3309 42.1209C89.4586 41.6704 89.5914 41.2017 89.8283 40.8519C90.0352 40.5463 90.4233 40.4031 90.7723 40.3763C91.0958 40.3516 91.453 40.4178 91.7027 40.6441C91.9417 40.8607 91.9874 41.184 91.9969 41.4944C92.1147 45.349 88.8622 52.1276 86.6543 55.2606C86.2052 55.8979 85.6651 56.518 85.1355 57.0861C84.563 57.7002 83.9065 58.2162 83.2509 58.7316L83.2508 58.7318L83.2505 58.732C83.1719 58.7938 83.0933 58.8556 83.0149 58.9175C80.3993 60.9832 77.6202 62.6653 74.6794 64.1905C72.6921 65.2213 70.7326 66.161 68.576 66.7602C67.4229 67.0807 66.2335 67.2644 65.047 67.4476C64.457 67.5387 63.8676 67.6297 63.2838 67.7374C59.5363 68.4285 55.4845 69.9978 52.6231 72.6318C52.1211 73.0939 51.6942 73.6023 51.2654 74.1131L51.2647 74.1139C51.015 74.4113 50.7645 74.7096 50.4981 75L50.4664 74.9618Z" fill="#2FA5D5"/>
<defs>
<linearGradient id="paint0_linear_43_70" x1="50" y1="0" x2="50" y2="100" gradientUnits="userSpaceOnUse">
<stop stop-color="#F3FBFB"/>
<stop offset="1" stop-color="#F3FBFB"/>
</linearGradient>
</defs>
</svg>
