<svg width="147" height="42" viewBox="0 0 147 42" fill="none" xmlns="http://www.w3.org/2000/svg">
<g clip-path="url(#clip0_43_23)">
<path d="M139.697 36.5717C142.562 36.5717 144.59 36.0566 146.102 34.9471V29.9151C144.551 30.9849 142.681 31.6585 140.055 31.6585C135.639 31.6585 133.81 28.2509 133.81 22.8622C133.81 17.1962 136.037 14.3037 140.095 14.3037C142.482 14.3037 144.829 15.1358 146.062 15.9283V10.6981C144.75 9.98488 142.482 9.46979 139.379 9.46979C131.462 9.46979 127.365 15.1358 127.365 23.0604C127.405 31.7377 131.423 36.5717 139.697 36.5717ZM100.989 34.2736V29.2415C99.0798 30.549 95.8177 31.6981 92.834 31.6981C88.2989 31.6981 86.5882 29.5585 86.3098 25.2H101.268V21.9509C101.268 12.8773 97.2498 9.46979 91.0836 9.46979C83.525 9.46979 79.9446 15.2151 79.9446 23.1C79.9446 32.1736 84.44 36.5717 92.3169 36.5717C96.2553 36.5717 99.1594 35.5019 100.989 34.2736ZM44.2204 9.94526V20.2471H35.9457V9.94526H29.7397V36.0566H35.9457V25.1604H44.2204V36.0566H50.4264V9.94526H44.2204ZM78.3932 31.1434H75.6482V9.94526H57.5872V12.1641C57.5872 18.5434 57.1893 26.7849 55.0013 31.1434H53.0122V42H58.7408V36.0566H72.6248V42H78.3534V31.1434H78.3932ZM120.761 36.0566H127.802L117.857 21.9905L126.609 9.94526H120.363L111.611 21.9905V9.94526H105.405V36.0566H111.611V23.2188L120.761 36.0566ZM90.9245 14.3037C93.9877 14.3037 94.9425 16.8396 94.9425 20.1283V20.6434H86.3098C86.4689 16.483 87.9806 14.3037 90.9245 14.3037ZM69.4422 31.1434H60.6902C62.4008 27.2207 62.8782 20.0887 62.8782 15.5717V14.7792H69.4422V31.1434Z" fill="black"/>
<path d="M24.5681 36.0566H18.2428V4.87358H15.4183C10.2466 4.87358 7.54142 7.44906 7.54142 11.2925C7.54142 15.6509 9.41117 17.6717 13.27 20.2472L16.4526 22.3868L7.30272 36.0566H0.5L8.73488 23.8528C4.00082 20.4849 1.33542 17.1962 1.33542 11.6491C1.33542 4.71509 6.18883 0 15.3785 0H24.5283V36.0566H24.5681Z" fill="#FC3F1D"/>
</g>
<defs>
<clipPath id="clip0_43_23">
<rect width="146" height="42" fill="white" transform="translate(0.5)"/>
</clipPath>
</defs>
</svg>
